solid OpenSCAD_Model
  facet normal -1 0 0
    outer loop
      vertex 0 8.56 -0.0999994
      vertex 0 5.64999 0
      vertex 0 8.56 0
    endloop
  endfacet
  facet normal -1 0 0
    outer loop
      vertex 0 5.64999 0
      vertex 0 2.48 0
      vertex 0 5.12999 5.16
    endloop
  endfacet
  facet normal -1 0 0
    outer loop
      vertex 0 8.56 -0.0999994
      vertex 0 2.48 0
      vertex 0 5.64999 0
    endloop
  endfacet
  facet normal -1 0 0
    outer loop
      vertex 0 0 -0.0999994
      vertex 0 2.48 0
      vertex 0 8.56 -0.0999994
    endloop
  endfacet
  facet normal -1 0 0
    outer loop
      vertex 0 0 5.06
      vertex 0 0.75 5.06
      vertex 0 0.75 0
    endloop
  endfacet
  facet normal -1 -0 0
    outer loop
      vertex 0 2.48 0
      vertex 0 0 -0.0999994
      vertex 0 0.75 0
    endloop
  endfacet
  facet normal -1 0 0
    outer loop
      vertex 0 0 0
      vertex 0 0.75 0
      vertex 0 0 -0.0999994
    endloop
  endfacet
  facet normal -1 0 0
    outer loop
      vertex 0 0 5.06
      vertex 0 0.75 0
      vertex 0 0 0
    endloop
  endfacet
  facet normal -1 0 0
    outer loop
      vertex 0 0.75 5.06
      vertex 0 0 5.06
      vertex 0 0.75 5.16
    endloop
  endfacet
  facet normal -1 -0 0
    outer loop
      vertex 0 0.75 5.16
      vertex 0 0 5.06
      vertex 0 0 5.16
    endloop
  endfacet
  facet normal -1 0 0
    outer loop
      vertex 0 2.48 5.06
      vertex 0 5.12999 5.16
      vertex 0 2.48 0
    endloop
  endfacet
  facet normal -1 -0 0
    outer loop
      vertex 0 5.12999 5.16
      vertex 0 2.48 5.06
      vertex 0 2.48 5.16
    endloop
  endfacet
  facet normal 0 0 1
    outer loop
      vertex 2.34 8.56 0
      vertex 0.75 8.56 0
      vertex 1.67 8.56 0
    endloop
  endfacet
  facet normal -0 0 1
    outer loop
      vertex 0 8.56 0
      vertex 0.75 8.56 0
      vertex 2.34 8.56 0
    endloop
  endfacet
  facet normal 0 0 1
    outer loop
      vertex 2.34 8.56 0
      vertex 2.34 7 0
      vertex 2.34 0 0
    endloop
  endfacet
  facet normal -0 0 1
    outer loop
      vertex 2.34 4.82999 0
      vertex 2.34 0 0
      vertex 2.34 7 0
    endloop
  endfacet
  facet normal -0 0 1
    outer loop
      vertex 2.34 3.28999 0
      vertex 2.34 0 0
      vertex 2.34 4.82999 0
    endloop
  endfacet
  facet normal -0 0 1
    outer loop
      vertex 2.34 2.85999 0
      vertex 2.34 0 0
      vertex 2.34 3.28999 0
    endloop
  endfacet
  facet normal -0 0 1
    outer loop
      vertex 2.34 0.75 0
      vertex 2.34 0 0
      vertex 2.34 2.85999 0
    endloop
  endfacet
  facet normal -0 0 1
    outer loop
      vertex 1.20999 8.45999 0
      vertex 1.29587 7.81378 0
      vertex 1.67 8.56 0
    endloop
  endfacet
  facet normal 0 0 1
    outer loop
      vertex 0.75 8.56 0
      vertex 1.29587 7.81378 0
      vertex 1.20999 8.45999 0
    endloop
  endfacet
  facet normal 0 0 1
    outer loop
      vertex 1.29587 7.81378 0
      vertex 0.75 8.56 0
      vertex 0.522766 7.72765 0
    endloop
  endfacet
  facet normal -0 0 1
    outer loop
      vertex 0.653931 5.29788 0
      vertex 1.48387 5.19824 0
      vertex 1.23 5.64999 0
    endloop
  endfacet
  facet normal 0 0 1
    outer loop
      vertex 1.48387 5.19824 0
      vertex 0.653931 5.29788 0
      vertex 0.809998 4.82999 0
    endloop
  endfacet
  facet normal -0 0 1
    outer loop
      vertex 0 5.12999 0
      vertex 0.809998 4.82999 0
      vertex 0.653931 5.29788 0
    endloop
  endfacet
  facet normal 0 0 1
    outer loop
      vertex 0.809998 4.82999 0
      vertex 0 5.12999 0
      vertex 0.709991 4.06 0
    endloop
  endfacet
  facet normal 0 0 1
    outer loop
      vertex 0.709991 4.06 0
      vertex 0.0999908 3.80499 0
      vertex 0.704987 2.57999 0
    endloop
  endfacet
  facet normal 0 0 1
    outer loop
      vertex 0.704987 2.57999 0
      vertex 0.0999908 3.80499 0
      vertex 0 2.48 0
    endloop
  endfacet
  facet normal 0 0 1
    outer loop
      vertex 0.324997 0.649994 0
      vertex 0 0.75 0
      vertex 0.0999908 0.375 0
    endloop
  endfacet
  facet normal 0 0 1
    outer loop
      vertex 0.709991 4.06 0
      vertex 0 5.12999 0
      vertex 0.0999908 3.80499 0
    endloop
  endfacet
  facet normal 0 0 1
    outer loop
      vertex 1.40999 2.48 0
      vertex 2.34 2.85999 0
      vertex 2.15352 3.03458 0
    endloop
  endfacet
  facet normal -0 0 1
    outer loop
      vertex 1.48 3.18999 0
      vertex 2.15352 3.03458 0
      vertex 2.14999 3.28999 0
    endloop
  endfacet
  facet normal 0 0 1
    outer loop
      vertex 2.15352 3.03458 0
      vertex 1.48 3.18999 0
      vertex 1.40999 2.48 0
    endloop
  endfacet
  facet normal 0 0 1
    outer loop
      vertex 2.34 2.85999 0
      vertex 1.40999 2.48 0
      vertex 1.80286 1.84386 0
    endloop
  endfacet
  facet normal 0 0 1
    outer loop
      vertex 1.12155 1.57477 0
      vertex 1.80286 1.84386 0
      vertex 1.40999 2.48 0
    endloop
  endfacet
  facet normal 0 0 1
    outer loop
      vertex 0.704987 2.57999 0
      vertex 1.48 3.18999 0
      vertex 0.809998 3.28999 0
    endloop
  endfacet
  facet normal 0 0 1
    outer loop
      vertex 1.48 3.18999 0
      vertex 0.704987 2.57999 0
      vertex 1.40999 2.48 0
    endloop
  endfacet
  facet normal 0 0 1
    outer loop
      vertex 0.704987 2.57999 0
      vertex 0.809998 3.28999 0
      vertex 0.709991 4.06 0
    endloop
  endfacet
  facet normal 0 0 1
    outer loop
      vertex 2.23 5.7 0
      vertex 1.59424 6.28473 0
      vertex 2.12999 5.53999 0
    endloop
  endfacet
  facet normal 0 0 1
    outer loop
      vertex 2.34 0.75 0
      vertex 1.89499 0.649994 0
      vertex 2.23999 0.375 0
    endloop
  endfacet
  facet normal 0 0 1
    outer loop
      vertex 1.17 0.0999908 0
      vertex 2.23999 0.375 0
      vertex 1.89499 0.649994 0
    endloop
  endfacet
  facet normal 0 0 1
    outer loop
      vertex 1.17 0.0999908 0
      vertex 1.89499 0.649994 0
      vertex 1.45 0.75 0
    endloop
  endfacet
  facet normal 0 0 1
    outer loop
      vertex 2.23999 0.375 0
      vertex 1.17 0.0999908 0
      vertex 2.34 0 0
    endloop
  endfacet
  facet normal 0 0 1
    outer loop
      vertex 1.80286 1.84386 0
      vertex 1.12155 1.57477 0
      vertex 1.45 0.75 0
    endloop
  endfacet
  facet normal 0 0 1
    outer loop
      vertex 0.649994 0.75 0
      vertex 1.45 0.75 0
      vertex 1.12155 1.57477 0
    endloop
  endfacet
  facet normal 0 0 1
    outer loop
      vertex 1.45 0.75 0
      vertex 0.649994 0.75 0
      vertex 1.17 0.0999908 0
    endloop
  endfacet
  facet normal -0 0 1
    outer loop
      vertex 0.324997 0.649994 0
      vertex 1.17 0.0999908 0
      vertex 0.649994 0.75 0
    endloop
  endfacet
  facet normal -0 0 1
    outer loop
      vertex 0.0999908 0.375 0
      vertex 1.17 0.0999908 0
      vertex 0.324997 0.649994 0
    endloop
  endfacet
  facet normal 0 0 1
    outer loop
      vertex 1.17 0.0999908 0
      vertex 0.0999908 0.375 0
      vertex 0 0 0
    endloop
  endfacet
  facet normal -0 0 1
    outer loop
      vertex 1.23 5.64999 0
      vertex 2.12999 5.53999 0
      vertex 1.59424 6.28473 0
    endloop
  endfacet
  facet normal 0 -0 1
    outer loop
      vertex 1.48387 5.19824 0
      vertex 2.12999 5.53999 0
      vertex 1.23 5.64999 0
    endloop
  endfacet
  facet normal 0 0 1
    outer loop
      vertex 2.12999 5.53999 0
      vertex 1.48387 5.19824 0
      vertex 2.23 5.37999 0
    endloop
  endfacet
  facet normal -0 0 1
    outer loop
      vertex 0.746246 6.37469 0
      vertex 1.59424 6.28473 0
      vertex 1.10999 7 0
    endloop
  endfacet
  facet normal 0 0 1
    outer loop
      vertex 1.29587 7.81378 0
      vertex 0.522766 7.72765 0
      vertex 1.10999 7 0
    endloop
  endfacet
  facet normal 0 0 1
    outer loop
      vertex 1.59424 6.28473 0
      vertex 0.746246 6.37469 0
      vertex 1.23 5.64999 0
    endloop
  endfacet
  facet normal 0 0 1
    outer loop
      vertex 0.109985 6.96999 0
      vertex 1.10999 7 0
      vertex 0.522766 7.72765 0
    endloop
  endfacet
  facet normal 0 0 1
    outer loop
      vertex 1.10999 7 0
      vertex 0.109985 6.96999 0
      vertex 0.746246 6.37469 0
    endloop
  endfacet
  facet normal 1 -0 0
    outer loop
      vertex 2.34 0 0
      vertex 2.34 8.56 -0.0999994
      vertex 2.34 8.56 0
    endloop
  endfacet
  facet normal 1 0 0
    outer loop
      vertex 2.34 8.56 -0.0999994
      vertex 2.34 0 0
      vertex 2.34 0 -0.0999994
    endloop
  endfacet
  facet normal 0 1 -0
    outer loop
      vertex 2.34 8.56 -0.0999994
      vertex 0 8.56 0
      vertex 2.34 8.56 0
    endloop
  endfacet
  facet normal 0 1 0
    outer loop
      vertex 0 8.56 0
      vertex 2.34 8.56 -0.0999994
      vertex 0 8.56 -0.0999994
    endloop
  endfacet
  facet normal 0 0 -1
    outer loop
      vertex 0 0 -0.0999994
      vertex 2.34 8.56 -0.0999994
      vertex 2.34 0 -0.0999994
    endloop
  endfacet
  facet normal -0 0 -1
    outer loop
      vertex 2.34 8.56 -0.0999994
      vertex 0 0 -0.0999994
      vertex 0 8.56 -0.0999994
    endloop
  endfacet
  facet normal 0 -1 0
    outer loop
      vertex 0 0 5.06
      vertex 2.34 0 5.16
      vertex 0 0 5.16
    endloop
  endfacet
  facet normal 0 -1 0
    outer loop
      vertex 0 0 5.06
      vertex 2.34 0 5.06
      vertex 2.34 0 5.16
    endloop
  endfacet
  facet normal 0 -1 0
    outer loop
      vertex 0 0 0
      vertex 2.34 0 5.06
      vertex 0 0 5.06
    endloop
  endfacet
  facet normal 0 -1 0
    outer loop
      vertex 0 0 0
      vertex 2.34 0 0
      vertex 2.34 0 5.06
    endloop
  endfacet
  facet normal 0 -1 0
    outer loop
      vertex 0 0 -0.0999994
      vertex 2.34 0 0
      vertex 0 0 0
    endloop
  endfacet
  facet normal 0 -1 0
    outer loop
      vertex 2.34 0 -0.0999994
      vertex 2.34 0 0
      vertex 0 0 -0.0999994
    endloop
  endfacet
  facet normal 0 0 -1
    outer loop
      vertex 1.17 0.0999908 5.06
      vertex 2.23999 0.375 5.06
      vertex 2.34 0 5.06
    endloop
  endfacet
  facet normal -0 0 -1
    outer loop
      vertex 2.23999 0.375 5.06
      vertex 1.17 0.0999908 5.06
      vertex 1.89499 0.649994 5.06
    endloop
  endfacet
  facet normal -0 0 -1
    outer loop
      vertex 1.89499 0.649994 5.06
      vertex 1.17 0.0999908 5.06
      vertex 1.45 0.75 5.06
    endloop
  endfacet
  facet normal 0 0 -1
    outer loop
      vertex 0.649994 0.75 5.06
      vertex 1.45 0.75 5.06
      vertex 1.17 0.0999908 5.06
    endloop
  endfacet
  facet normal 0 0 -1
    outer loop
      vertex 1.45 0.75 5.06
      vertex 1.12155 1.57477 5.06
      vertex 1.40999 2.48 5.06
    endloop
  endfacet
  facet normal 0 0 -1
    outer loop
      vertex 1.45 0.75 5.06
      vertex 0.649994 0.75 5.06
      vertex 1.12155 1.57477 5.06
    endloop
  endfacet
  facet normal 0 0 -1
    outer loop
      vertex 1.17 0.0999908 5.06
      vertex 0.324997 0.649994 5.06
      vertex 0.649994 0.75 5.06
    endloop
  endfacet
  facet normal 0 0 -1
    outer loop
      vertex 1.17 0.0999908 5.06
      vertex 0.0999908 0.375 5.06
      vertex 0.324997 0.649994 5.06
    endloop
  endfacet
  facet normal 0 -0 -1
    outer loop
      vertex 0.0999908 0.375 5.06
      vertex 1.17 0.0999908 5.06
      vertex 0 0 5.06
    endloop
  endfacet
  facet normal 0 0 -1
    outer loop
      vertex 2.34 0.75 5.06
      vertex 2.23999 0.375 5.06
      vertex 1.89499 0.649994 5.06
    endloop
  endfacet
  facet normal 0 0 -1
    outer loop
      vertex 1.40999 2.48 5.06
      vertex 2.34 2.85999 5.06
      vertex 1.80286 1.84386 5.06
    endloop
  endfacet
  facet normal -0 0 -1
    outer loop
      vertex 2.34 2.85999 5.06
      vertex 1.40999 2.48 5.06
      vertex 2.15352 3.03458 5.06
    endloop
  endfacet
  facet normal 0 -0 -1
    outer loop
      vertex 1.48 3.18999 5.06
      vertex 2.15352 3.03458 5.06
      vertex 1.40999 2.48 5.06
    endloop
  endfacet
  facet normal 0 0 -1
    outer loop
      vertex 1.40999 2.48 5.06
      vertex 1.80286 1.84386 5.06
      vertex 1.45 0.75 5.06
    endloop
  endfacet
  facet normal 0 0 -1
    outer loop
      vertex 2.15352 3.03458 5.06
      vertex 1.48 3.18999 5.06
      vertex 2.14999 3.28999 5.06
    endloop
  endfacet
  facet normal 0 0 -1
    outer loop
      vertex 0.704987 2.57999 5.06
      vertex 1.48 3.18999 5.06
      vertex 1.40999 2.48 5.06
    endloop
  endfacet
  facet normal 0 0 -1
    outer loop
      vertex 0 2.48 5.06
      vertex 0.809998 3.28999 5.06
      vertex 0.704987 2.57999 5.06
    endloop
  endfacet
  facet normal -0 0 -1
    outer loop
      vertex 1.48 3.18999 5.06
      vertex 0.704987 2.57999 5.06
      vertex 0.809998 3.28999 5.06
    endloop
  endfacet
  facet normal 0 0 -1
    outer loop
      vertex 0.653931 5.29788 5.06
      vertex 1.48387 5.19824 5.06
      vertex 0.809998 4.82999 5.06
    endloop
  endfacet
  facet normal 0 0 -1
    outer loop
      vertex 1.48387 5.19824 5.06
      vertex 0.653931 5.29788 5.06
      vertex 1.23 5.64999 5.06
    endloop
  endfacet
  facet normal 0 0 -1
    outer loop
      vertex 0 5.12999 5.06
      vertex 0.809998 4.82999 5.06
      vertex 0.709991 4.06 5.06
    endloop
  endfacet
  facet normal 0 0 -1
    outer loop
      vertex 0.809998 3.28999 5.06
      vertex 0.0999908 3.80499 5.06
      vertex 0.709991 4.06 5.06
    endloop
  endfacet
  facet normal 0 0 -1
    outer loop
      vertex 0 5.12999 5.06
      vertex 0.709991 4.06 5.06
      vertex 0.0999908 3.80499 5.06
    endloop
  endfacet
  facet normal -0 0 -1
    outer loop
      vertex 0.809998 3.28999 5.06
      vertex 0 2.48 5.06
      vertex 0.0999908 3.80499 5.06
    endloop
  endfacet
  facet normal 0 0 -1
    outer loop
      vertex 1.48387 5.19824 5.06
      vertex 2.12999 5.53999 5.06
      vertex 2.23 5.37999 5.06
    endloop
  endfacet
  facet normal -0 0 -1
    outer loop
      vertex 2.12999 5.53999 5.06
      vertex 1.48387 5.19824 5.06
      vertex 1.23 5.64999 5.06
    endloop
  endfacet
  facet normal 0 0 -1
    outer loop
      vertex 2.12999 5.53999 5.06
      vertex 1.23 5.64999 5.06
      vertex 1.59424 6.28473 5.06
    endloop
  endfacet
  facet normal 0 0 -1
    outer loop
      vertex 0.746246 6.37469 5.06
      vertex 1.59424 6.28473 5.06
      vertex 1.23 5.64999 5.06
    endloop
  endfacet
  facet normal 0 0 -1
    outer loop
      vertex 1.59424 6.28473 5.06
      vertex 0.746246 6.37469 5.06
      vertex 1.10999 7 5.06
    endloop
  endfacet
  facet normal 0 0 -1
    outer loop
      vertex 0.109985 6.96999 5.06
      vertex 1.10999 7 5.06
      vertex 0.746246 6.37469 5.06
    endloop
  endfacet
  facet normal 0 0 -1
    outer loop
      vertex 1.10999 7 5.06
      vertex 0.522766 7.72765 5.06
      vertex 0.75 8.56 5.06
    endloop
  endfacet
  facet normal -0 0 -1
    outer loop
      vertex 1.10999 7 5.06
      vertex 0.109985 6.96999 5.06
      vertex 0.522766 7.72765 5.06
    endloop
  endfacet
  facet normal -0 0 -1
    outer loop
      vertex 2.23 5.7 5.06
      vertex 2.12999 5.53999 5.06
      vertex 1.59424 6.28473 5.06
    endloop
  endfacet
  facet normal 0 0 -1
    outer loop
      vertex 1.29587 7.81378 5.06
      vertex 1.20999 8.45999 5.06
      vertex 1.67 8.56 5.06
    endloop
  endfacet
  facet normal 0 0 -1
    outer loop
      vertex 0.75 8.56 5.06
      vertex 1.29587 7.81378 5.06
      vertex 1.10999 7 5.06
    endloop
  endfacet
  facet normal 0 0 -1
    outer loop
      vertex 1.29587 7.81378 5.06
      vertex 0.75 8.56 5.06
      vertex 1.20999 8.45999 5.06
    endloop
  endfacet
  facet normal -0 0 -1
    outer loop
      vertex 0.324997 0.649994 5.06
      vertex 0.0999908 0.375 5.06
      vertex 0 0.75 5.06
    endloop
  endfacet
  facet normal 0 0 -1
    outer loop
      vertex 0.809998 4.82999 5.06
      vertex 0 5.12999 5.06
      vertex 0.653931 5.29788 5.06
    endloop
  endfacet
  facet normal 0 0 1
    outer loop
      vertex 1.67 8.56 5.16
      vertex 0.75 8.56 5.16
      vertex 1.10999 7 5.16
    endloop
  endfacet
  facet normal 0 0 1
    outer loop
      vertex 2.23 5.7 5.16
      vertex 1.23 5.64999 5.16
      vertex 2.23 5.37999 5.16
    endloop
  endfacet
  facet normal 0 0 1
    outer loop
      vertex 1.10999 7 5.16
      vertex 1.23 5.64999 5.16
      vertex 2.23 5.7 5.16
    endloop
  endfacet
  facet normal 0 0 1
    outer loop
      vertex 0.109985 6.96999 5.16
      vertex 1.10999 7 5.16
      vertex 0.75 8.56 5.16
    endloop
  endfacet
  facet normal 0 0 1
    outer loop
      vertex 1.10999 7 5.16
      vertex 0.109985 6.96999 5.16
      vertex 1.23 5.64999 5.16
    endloop
  endfacet
  facet normal 0 0 1
    outer loop
      vertex 1.23 5.64999 5.16
      vertex 0.809998 4.82999 5.16
      vertex 2.23 5.37999 5.16
    endloop
  endfacet
  facet normal 0 0 1
    outer loop
      vertex 0.809998 4.82999 5.16
      vertex 0 5.12999 5.16
      vertex 0.809998 3.28999 5.16
    endloop
  endfacet
  facet normal -0 0 1
    outer loop
      vertex 0 5.12999 5.16
      vertex 0.809998 4.82999 5.16
      vertex 1.23 5.64999 5.16
    endloop
  endfacet
  facet normal 0 0 1
    outer loop
      vertex 1.40999 2.48 5.16
      vertex 2.34 2.85999 5.16
      vertex 2.14999 3.28999 5.16
    endloop
  endfacet
  facet normal 0 0 1
    outer loop
      vertex 2.34 2.85999 5.16
      vertex 1.40999 2.48 5.16
      vertex 1.45 0.75 5.16
    endloop
  endfacet
  facet normal -0 0 1
    outer loop
      vertex 0.809998 3.28999 5.16
      vertex 1.40999 2.48 5.16
      vertex 2.14999 3.28999 5.16
    endloop
  endfacet
  facet normal 0 0 1
    outer loop
      vertex 0.809998 3.28999 5.16
      vertex 0 2.48 5.16
      vertex 1.40999 2.48 5.16
    endloop
  endfacet
  facet normal 0 0 1
    outer loop
      vertex 0 2.48 5.16
      vertex 0.809998 3.28999 5.16
      vertex 0 5.12999 5.16
    endloop
  endfacet
  facet normal -0 0 1
    outer loop
      vertex 1.45 0.75 5.16
      vertex 2.34 0 5.16
      vertex 2.34 0.75 5.16
    endloop
  endfacet
  facet normal 0 0 1
    outer loop
      vertex 0.649994 0.75 5.16
      vertex 1.45 0.75 5.16
      vertex 1.40999 2.48 5.16
    endloop
  endfacet
  facet normal 0 0 1
    outer loop
      vertex 0 0 5.16
      vertex 1.45 0.75 5.16
      vertex 0.649994 0.75 5.16
    endloop
  endfacet
  facet normal 0 0 1
    outer loop
      vertex 0 0 5.16
      vertex 0.649994 0.75 5.16
      vertex 0 0.75 5.16
    endloop
  endfacet
  facet normal 0 0 1
    outer loop
      vertex 1.45 0.75 5.16
      vertex 0 0 5.16
      vertex 2.34 0 5.16
    endloop
  endfacet
  facet normal 0 1 -0
    outer loop
      vertex 2.34 0.75 5.06
      vertex 1.45 0.75 5.16
      vertex 2.34 0.75 5.16
    endloop
  endfacet
  facet normal 0 1 0
    outer loop
      vertex 1.45 0.75 5.16
      vertex 2.34 0.75 5.06
      vertex 2.34 0.75 0
    endloop
  endfacet
  facet normal 0 1 0
    outer loop
      vertex 2.14999 3.28999 5.16
      vertex 2.14999 3.28999 0.640793
      vertex 0.809998 3.28999 5.16
    endloop
  endfacet
  facet normal -0 1 0
    outer loop
      vertex 2.14999 3.28999 0.640793
      vertex 2.14999 3.28999 5.16
      vertex 2.34 3.28999 0
    endloop
  endfacet
  facet normal 0 1 0
    outer loop
      vertex 1.67 8.56 0
      vertex 1.67 8.56 5.16
      vertex 2.34 8.56 0
    endloop
  endfacet
  facet normal 0 1 0
    outer loop
      vertex 1.67 8.56 5.16
      vertex 1.67 8.56 0
      vertex 0.75 8.56 5.16
    endloop
  endfacet
  facet normal 0 1 0
    outer loop
      vertex 0.75 8.56 0
      vertex 0.75 8.56 5.16
      vertex 1.67 8.56 0
    endloop
  endfacet
  facet normal 0 1 0
    outer loop
      vertex 0.75 8.56 5.16
      vertex 0.75 8.56 0
      vertex 0 8.56 0
    endloop
  endfacet
  facet normal 0 -1 0
    outer loop
      vertex 0 2.48 5.06
      vertex 1.40999 2.48 5.16
      vertex 0 2.48 5.16
    endloop
  endfacet
  facet normal 0 -1 0
    outer loop
      vertex 1.40999 2.48 5.16
      vertex 0 2.48 5.06
      vertex 0 2.48 0
    endloop
  endfacet
  facet normal 0 1 0
    outer loop
      vertex 0.649994 0.75 5.16
      vertex 0 0.75 5.06
      vertex 0 0.75 5.16
    endloop
  endfacet
  facet normal -0 1 0
    outer loop
      vertex 0 0.75 5.06
      vertex 0.649994 0.75 5.16
      vertex 0 0.75 0
    endloop
  endfacet
  facet normal 1 0 0
    outer loop
      vertex 2.34 0 5.06
      vertex 2.34 0.75 5.06
      vertex 2.34 0.75 5.16
    endloop
  endfacet
  facet normal 1 0 0
    outer loop
      vertex 2.34 0 5.06
      vertex 2.34 0.75 5.16
      vertex 2.34 0 5.16
    endloop
  endfacet
  facet normal 1 0 0
    outer loop
      vertex 2.34 0.75 5.06
      vertex 2.34 0 5.06
      vertex 2.34 0.75 0
    endloop
  endfacet
  facet normal 1 0 0
    outer loop
      vertex 2.34 0.75 0
      vertex 2.34 0 5.06
      vertex 2.34 0 0
    endloop
  endfacet
  facet normal 0.966241 -0.257641 0
    outer loop
      vertex 0 0 5.06
      vertex 0.0999908 0.375 0
      vertex 0.0999908 0.375 5.06
    endloop
  endfacet
  facet normal 0.966241 -0.257641 0
    outer loop
      vertex 0.0999908 0.375 0
      vertex 0 0 5.06
      vertex 0 0 0
    endloop
  endfacet
  facet normal 0.966241 0.257641 0
    outer loop
      vertex 0.0999908 0.375 5.06
      vertex 0 0.75 0
      vertex 0 0.75 5.06
    endloop
  endfacet
  facet normal 0.966241 0.257641 0
    outer loop
      vertex 0 0.75 0
      vertex 0.0999908 0.375 5.06
      vertex 0.0999908 0.375 0
    endloop
  endfacet
  facet normal -0.294105 -0.955773 0
    outer loop
      vertex 0 0.75 0
      vertex 0.324997 0.649994 5.06
      vertex 0 0.75 5.06
    endloop
  endfacet
  facet normal -0.294105 -0.955773 -0
    outer loop
      vertex 0.324997 0.649994 5.06
      vertex 0 0.75 0
      vertex 0.324997 0.649994 0
    endloop
  endfacet
  facet normal 0.294105 -0.955773 0
    outer loop
      vertex 0.324997 0.649994 0
      vertex 0.649994 0.75 5.06
      vertex 0.324997 0.649994 5.06
    endloop
  endfacet
  facet normal 0.294105 -0.955773 0
    outer loop
      vertex 0.649994 0.75 5.06
      vertex 0.324997 0.649994 0
      vertex 0.649994 0.75 0
    endloop
  endfacet
  facet normal 0.952801 -0.303595 0
    outer loop
      vertex 1.12155 1.57477 5.06
      vertex 1.40999 2.48 0
      vertex 1.40999 2.48 5.06
    endloop
  endfacet
  facet normal 0.952801 -0.303595 0
    outer loop
      vertex 1.40999 2.48 0
      vertex 1.12155 1.57477 5.06
      vertex 1.12155 1.57477 0
    endloop
  endfacet
  facet normal -0.992159 0 0.12498
    outer loop
      vertex 0 2.48 0
      vertex 0 0.75 0
      vertex 0.649994 0.75 5.16
    endloop
  endfacet
  facet normal 0.868125 -0.496346 0
    outer loop
      vertex 0.649994 0.75 5.06
      vertex 1.12155 1.57477 0
      vertex 1.12155 1.57477 5.06
    endloop
  endfacet
  facet normal 0.868125 -0.496346 0
    outer loop
      vertex 1.12155 1.57477 0
      vertex 0.649994 0.75 5.06
      vertex 0.649994 0.75 0
    endloop
  endfacet
  facet normal -0.888177 0.39018 0.242697
    outer loop
      vertex 1.40999 2.48 5.16
      vertex 0 2.48 0
      vertex 0.649994 0.75 5.16
    endloop
  endfacet
  facet normal -0.140428 0.990091 0
    outer loop
      vertex 0.704987 2.57999 0
      vertex 0 2.48 5.06
      vertex 0.704987 2.57999 5.06
    endloop
  endfacet
  facet normal -0.140428 0.990091 0
    outer loop
      vertex 0 2.48 5.06
      vertex 0.704987 2.57999 0
      vertex 0 2.48 0
    endloop
  endfacet
  facet normal 0.140425 0.990091 -0
    outer loop
      vertex 1.40999 2.48 0
      vertex 0.704987 2.57999 5.06
      vertex 1.40999 2.48 5.06
    endloop
  endfacet
  facet normal 0.140425 0.990091 0
    outer loop
      vertex 0.704987 2.57999 5.06
      vertex 1.40999 2.48 0
      vertex 0.704987 2.57999 0
    endloop
  endfacet
  facet normal 0.997165 -0.075251 0
    outer loop
      vertex 0 2.48 5.06
      vertex 0.0999908 3.80499 0
      vertex 0.0999908 3.80499 5.06
    endloop
  endfacet
  facet normal 0.997165 -0.075251 0
    outer loop
      vertex 0.0999908 3.80499 0
      vertex 0 2.48 5.06
      vertex 0 2.48 0
    endloop
  endfacet
  facet normal 0.997165 0.075251 0
    outer loop
      vertex 0.0999908 3.80499 5.06
      vertex 0 5.12999 0
      vertex 0 5.12999 5.06
    endloop
  endfacet
  facet normal 0.997165 0.075251 0
    outer loop
      vertex 0 5.12999 0
      vertex 0.0999908 3.80499 5.06
      vertex 0.0999908 3.80499 0
    endloop
  endfacet
  facet normal 0.521528 -0.853234 0
    outer loop
      vertex 0.653931 5.29788 0
      vertex 1.23 5.64999 5.06
      vertex 0.653931 5.29788 5.06
    endloop
  endfacet
  facet normal 0.521528 -0.853234 0
    outer loop
      vertex 1.23 5.64999 5.06
      vertex 0.653931 5.29788 0
      vertex 1.23 5.64999 0
    endloop
  endfacet
  facet normal 0.248678 -0.968586 0
    outer loop
      vertex 0 5.12999 0
      vertex 0.653931 5.29788 5.06
      vertex 0 5.12999 5.06
    endloop
  endfacet
  facet normal 0.248678 -0.968586 0
    outer loop
      vertex 0.653931 5.29788 5.06
      vertex 0 5.12999 0
      vertex 0.653931 5.29788 0
    endloop
  endfacet
  facet normal -0.387733 0.917126 0.0924244
    outer loop
      vertex 0 5.64999 0
      vertex 0 5.12999 5.16
      vertex 1.23 5.64999 5.16
    endloop
  endfacet
  facet normal 0.683206 0.730226 -0
    outer loop
      vertex 0.746246 6.37469 0
      vertex 0.109985 6.96999 5.06
      vertex 0.746246 6.37469 5.06
    endloop
  endfacet
  facet normal 0.683206 0.730226 0
    outer loop
      vertex 0.109985 6.96999 5.06
      vertex 0.746246 6.37469 0
      vertex 0.109985 6.96999 0
    endloop
  endfacet
  facet normal -0.750213 -0.636554 0.178829
    outer loop
      vertex 0.109985 6.96999 5.16
      vertex 0 5.64999 0
      vertex 1.23 5.64999 5.16
    endloop
  endfacet
  facet normal -0.999773 0 0.0213102
    outer loop
      vertex 0 8.56 0
      vertex 0 5.64999 0
      vertex 0.109985 6.96999 5.16
    endloop
  endfacet
  facet normal 0.831724 0.555189 0
    outer loop
      vertex 1.23 5.64999 5.06
      vertex 0.746246 6.37469 0
      vertex 0.746246 6.37469 5.06
    endloop
  endfacet
  facet normal 0.831724 0.555189 0
    outer loop
      vertex 0.746246 6.37469 0
      vertex 1.23 5.64999 5.06
      vertex 1.23 5.64999 0
    endloop
  endfacet
  facet normal 0.964696 -0.263364 0
    outer loop
      vertex 0.522766 7.72765 5.06
      vertex 0.75 8.56 0
      vertex 0.75 8.56 5.06
    endloop
  endfacet
  facet normal 0.964696 -0.263364 0
    outer loop
      vertex 0.75 8.56 0
      vertex 0.522766 7.72765 5.06
      vertex 0.522766 7.72765 0
    endloop
  endfacet
  facet normal 0.878133 -0.478416 0
    outer loop
      vertex 0.109985 6.96999 5.06
      vertex 0.522766 7.72765 0
      vertex 0.522766 7.72765 5.06
    endloop
  endfacet
  facet normal 0.878133 -0.478416 0
    outer loop
      vertex 0.522766 7.72765 0
      vertex 0.109985 6.96999 5.06
      vertex 0.109985 6.96999 0
    endloop
  endfacet
  facet normal -0.919348 0.370058 0.133626
    outer loop
      vertex 0.75 8.56 5.16
      vertex 0 8.56 0
      vertex 0.109985 6.96999 5.16
    endloop
  endfacet
  facet normal -0.212446 -0.977173 0
    outer loop
      vertex 0.75 8.56 0
      vertex 1.20999 8.45999 5.06
      vertex 0.75 8.56 5.06
    endloop
  endfacet
  facet normal -0.212446 -0.977173 -0
    outer loop
      vertex 1.20999 8.45999 5.06
      vertex 0.75 8.56 0
      vertex 1.20999 8.45999 0
    endloop
  endfacet
  facet normal 0.212439 -0.977174 0
    outer loop
      vertex 1.20999 8.45999 0
      vertex 1.67 8.56 5.06
      vertex 1.20999 8.45999 5.06
    endloop
  endfacet
  facet normal 0.212439 -0.977174 0
    outer loop
      vertex 1.67 8.56 5.06
      vertex 1.20999 8.45999 0
      vertex 1.67 8.56 0
    endloop
  endfacet
  facet normal -0.893937 0.448193 0
    outer loop
      vertex 1.29587 7.81378 0
      vertex 1.67 8.56 5.06
      vertex 1.67 8.56 0
    endloop
  endfacet
  facet normal -0.893937 0.448193 0
    outer loop
      vertex 1.67 8.56 5.06
      vertex 1.29587 7.81378 0
      vertex 1.29587 7.81378 5.06
    endloop
  endfacet
  facet normal 0.991675 0 0.128764
    outer loop
      vertex 2.34 8.56 0
      vertex 1.67 8.56 5.16
      vertex 2.34 7 0
    endloop
  endfacet
  facet normal 0.918363 -0.329677 0.218914
    outer loop
      vertex 1.67 8.56 5.16
      vertex 1.10999 7 5.16
      vertex 2.34 7 0
    endloop
  endfacet
  facet normal -0.974891 0.222683 0
    outer loop
      vertex 1.10999 7 0
      vertex 1.29587 7.81378 5.06
      vertex 1.29587 7.81378 0
    endloop
  endfacet
  facet normal -0.974891 0.222683 0
    outer loop
      vertex 1.29587 7.81378 5.06
      vertex 1.10999 7 0
      vertex 1.10999 7 5.06
    endloop
  endfacet
  facet normal -0.828072 -0.560622 0
    outer loop
      vertex 1.59424 6.28473 0
      vertex 1.10999 7 5.06
      vertex 1.10999 7 0
    endloop
  endfacet
  facet normal -0.828072 -0.560622 0
    outer loop
      vertex 1.10999 7 5.06
      vertex 1.59424 6.28473 0
      vertex 1.59424 6.28473 5.06
    endloop
  endfacet
  facet normal -0.676953 -0.736026 0
    outer loop
      vertex 1.59424 6.28473 0
      vertex 2.23 5.7 5.06
      vertex 1.59424 6.28473 5.06
    endloop
  endfacet
  facet normal -0.676953 -0.736026 -0
    outer loop
      vertex 2.23 5.7 5.06
      vertex 1.59424 6.28473 0
      vertex 2.23 5.7 0
    endloop
  endfacet
  facet normal 0.745546 0.642321 0.177719
    outer loop
      vertex 2.34 7 0
      vertex 1.10999 7 5.16
      vertex 2.23 5.7 5.16
    endloop
  endfacet
  facet normal 0.999773 0 0.0213131
    outer loop
      vertex 2.34 4.82999 0
      vertex 2.23 5.7 5.16
      vertex 2.23 5.37999 5.16
    endloop
  endfacet
  facet normal 0.999773 0 0.0213131
    outer loop
      vertex 2.23 5.7 5.16
      vertex 2.34 4.82999 0
      vertex 2.34 7 0
    endloop
  endfacet
  facet normal -0.847989 0.530013 0
    outer loop
      vertex 2.12999 5.53999 0
      vertex 2.23 5.7 5.06
      vertex 2.23 5.7 0
    endloop
  endfacet
  facet normal -0.847989 0.530013 0
    outer loop
      vertex 2.23 5.7 5.06
      vertex 2.12999 5.53999 0
      vertex 2.12999 5.53999 5.06
    endloop
  endfacet
  facet normal -0.847989 -0.530013 0
    outer loop
      vertex 2.23 5.37999 0
      vertex 2.12999 5.53999 5.06
      vertex 2.12999 5.53999 0
    endloop
  endfacet
  facet normal -0.847989 -0.530013 0
    outer loop
      vertex 2.12999 5.53999 5.06
      vertex 2.23 5.37999 0
      vertex 2.23 5.37999 5.06
    endloop
  endfacet
  facet normal -0.479542 0.877519 0
    outer loop
      vertex 1.48387 5.19824 0
      vertex 0.809998 4.82999 5.06
      vertex 1.48387 5.19824 5.06
    endloop
  endfacet
  facet normal -0.479542 0.877519 0
    outer loop
      vertex 0.809998 4.82999 5.06
      vertex 1.48387 5.19824 0
      vertex 0.809998 4.82999 0
    endloop
  endfacet
  facet normal -0.236668 0.97159 0
    outer loop
      vertex 2.23 5.37999 0
      vertex 1.48387 5.19824 5.06
      vertex 2.23 5.37999 5.06
    endloop
  endfacet
  facet normal -0.236668 0.97159 0
    outer loop
      vertex 1.48387 5.19824 5.06
      vertex 2.23 5.37999 0
      vertex 1.48387 5.19824 0
    endloop
  endfacet
  facet normal 0.359127 -0.927194 0.106485
    outer loop
      vertex 2.23 5.37999 5.16
      vertex 0.809998 4.82999 5.16
      vertex 2.34 4.82999 0
    endloop
  endfacet
  facet normal -0.991671 0.128798 0
    outer loop
      vertex 0.709991 4.06 0
      vertex 0.809998 4.82999 5.06
      vertex 0.809998 4.82999 0
    endloop
  endfacet
  facet normal -0.991671 0.128798 0
    outer loop
      vertex 0.809998 4.82999 5.06
      vertex 0.709991 4.06 0
      vertex 0.709991 4.06 5.06
    endloop
  endfacet
  facet normal 0.958742 0 0.284278
    outer loop
      vertex 2.14999 3.28999 0.640793
      vertex 0.809998 4.82999 5.16
      vertex 0.809998 3.28999 5.16
    endloop
  endfacet
  facet normal 0.958742 -2.63949e-09 0.284278
    outer loop
      vertex 0.809998 4.82999 5.16
      vertex 2.14999 3.28999 0.640793
      vertex 2.34 4.82999 0
    endloop
  endfacet
  facet normal 0.958742 0 0.284278
    outer loop
      vertex 2.34 4.82999 0
      vertex 2.14999 3.28999 0.640793
      vertex 2.34 3.28999 0
    endloop
  endfacet
  facet normal -0.991671 -0.128796 0
    outer loop
      vertex 0.809998 3.28999 0
      vertex 0.709991 4.06 5.06
      vertex 0.709991 4.06 0
    endloop
  endfacet
  facet normal -0.991671 -0.128796 0
    outer loop
      vertex 0.709991 4.06 5.06
      vertex 0.809998 3.28999 0
      vertex 0.809998 3.28999 5.06
    endloop
  endfacet
  facet normal -0.147628 -0.989043 0
    outer loop
      vertex 0.809998 3.28999 0
      vertex 1.48 3.18999 5.06
      vertex 0.809998 3.28999 5.06
    endloop
  endfacet
  facet normal -0.147628 -0.989043 -0
    outer loop
      vertex 1.48 3.18999 5.06
      vertex 0.809998 3.28999 0
      vertex 1.48 3.18999 0
    endloop
  endfacet
  facet normal 0.147628 -0.989043 0
    outer loop
      vertex 1.48 3.18999 5.06
      vertex 2.14999 3.28999 0.640793
      vertex 2.14999 3.28999 5.06
    endloop
  endfacet
  facet normal 0.147628 -0.989043 0
    outer loop
      vertex 1.48 3.18999 0
      vertex 2.14999 3.28999 0.640793
      vertex 1.48 3.18999 5.06
    endloop
  endfacet
  facet normal 0.147628 -0.989043 0
    outer loop
      vertex 2.14999 3.28999 0.640793
      vertex 1.48 3.18999 0
      vertex 2.14999 3.28999 0
    endloop
  endfacet
  facet normal -0.999905 -0.0137988 0
    outer loop
      vertex 2.15352 3.03458 0
      vertex 2.14999 3.28999 0.640793
      vertex 2.14999 3.28999 0
    endloop
  endfacet
  facet normal -0.999905 -0.0137988 -0
    outer loop
      vertex 2.15352 3.03458 5.06
      vertex 2.14999 3.28999 0.640793
      vertex 2.15352 3.03458 0
    endloop
  endfacet
  facet normal -0.999905 -0.0137988 0
    outer loop
      vertex 2.14999 3.28999 0.640793
      vertex 2.15352 3.03458 5.06
      vertex 2.14999 3.28999 5.06
    endloop
  endfacet
  facet normal -0.683458 -0.72999 0
    outer loop
      vertex 2.15352 3.03458 0
      vertex 2.34 2.85999 5.06
      vertex 2.15352 3.03458 5.06
    endloop
  endfacet
  facet normal -0.683458 -0.72999 -0
    outer loop
      vertex 2.34 2.85999 5.06
      vertex 2.15352 3.03458 0
      vertex 2.34 2.85999 0
    endloop
  endfacet
  facet normal 1 0 0
    outer loop
      vertex 2.34 2.85999 5.16
      vertex 2.34 2.85999 0
      vertex 2.34 3.28999 0
    endloop
  endfacet
  facet normal 1 0 -0
    outer loop
      vertex 2.34 2.85999 0
      vertex 2.34 2.85999 5.16
      vertex 2.34 0.75 0
    endloop
  endfacet
  facet normal 0.914169 0.403933 0.0336617
    outer loop
      vertex 2.34 3.28999 0
      vertex 2.14999 3.28999 5.16
      vertex 2.34 2.85999 5.16
    endloop
  endfacet
  facet normal -0.884079 0.467337 0
    outer loop
      vertex 1.80286 1.84386 0
      vertex 2.34 2.85999 5.06
      vertex 2.34 2.85999 0
    endloop
  endfacet
  facet normal -0.884079 0.467337 0
    outer loop
      vertex 2.34 2.85999 5.06
      vertex 1.80286 1.84386 0
      vertex 1.80286 1.84386 5.06
    endloop
  endfacet
  facet normal -0.951708 0.307005 0
    outer loop
      vertex 1.45 0.75 0
      vertex 1.80286 1.84386 5.06
      vertex 1.80286 1.84386 0
    endloop
  endfacet
  facet normal -0.951708 0.307005 0
    outer loop
      vertex 1.80286 1.84386 5.06
      vertex 1.45 0.75 0
      vertex 1.45 0.75 5.06
    endloop
  endfacet
  facet normal 0.909968 -0.383828 0.156952
    outer loop
      vertex 2.34 2.85999 5.16
      vertex 1.45 0.75 5.16
      vertex 2.34 0.75 0
    endloop
  endfacet
  facet normal -0.219268 -0.975665 0
    outer loop
      vertex 1.45 0.75 0
      vertex 1.89499 0.649994 5.06
      vertex 1.45 0.75 5.06
    endloop
  endfacet
  facet normal -0.219268 -0.975665 -0
    outer loop
      vertex 1.89499 0.649994 5.06
      vertex 1.45 0.75 0
      vertex 1.89499 0.649994 0
    endloop
  endfacet
  facet normal 0.219261 -0.975666 0
    outer loop
      vertex 1.89499 0.649994 0
      vertex 2.34 0.75 5.06
      vertex 1.89499 0.649994 5.06
    endloop
  endfacet
  facet normal 0.219261 -0.975666 0
    outer loop
      vertex 2.34 0.75 5.06
      vertex 1.89499 0.649994 0
      vertex 2.34 0.75 0
    endloop
  endfacet
  facet normal -0.966231 -0.257677 0
    outer loop
      vertex 2.34 0 0
      vertex 2.23999 0.375 5.06
      vertex 2.23999 0.375 0
    endloop
  endfacet
  facet normal -0.966231 -0.257677 0
    outer loop
      vertex 2.23999 0.375 5.06
      vertex 2.34 0 0
      vertex 2.34 0 5.06
    endloop
  endfacet
  facet normal -0.966231 0.257677 0
    outer loop
      vertex 2.23999 0.375 0
      vertex 2.34 0.75 5.06
      vertex 2.34 0.75 0
    endloop
  endfacet
  facet normal -0.966231 0.257677 0
    outer loop
      vertex 2.34 0.75 5.06
      vertex 2.23999 0.375 0
      vertex 2.23999 0.375 5.06
    endloop
  endfacet
  facet normal 0.085152 0.996368 -0
    outer loop
      vertex 2.34 0 0
      vertex 1.17 0.0999908 5.06
      vertex 2.34 0 5.06
    endloop
  endfacet
  facet normal 0.085152 0.996368 0
    outer loop
      vertex 1.17 0.0999908 5.06
      vertex 2.34 0 0
      vertex 1.17 0.0999908 0
    endloop
  endfacet
  facet normal -0.085152 0.996368 0
    outer loop
      vertex 1.17 0.0999908 0
      vertex 0 0 5.06
      vertex 1.17 0.0999908 5.06
    endloop
  endfacet
  facet normal -0.085152 0.996368 0
    outer loop
      vertex 0 0 5.06
      vertex 1.17 0.0999908 0
      vertex 0 0 0
    endloop
  endfacet
endsolid OpenSCAD_Model
