solid OpenSCAD_Model
  facet normal -1 0 0
    outer loop
      vertex 0 8.56 -0.0999994
      vertex 0 5.64999 0
      vertex 0 8.56 0
    endloop
  endfacet
  facet normal -1 0 0
    outer loop
      vertex 0 5.64999 0
      vertex 0 2.48 0
      vertex 0 5.12999 4.96
    endloop
  endfacet
  facet normal -1 0 0
    outer loop
      vertex 0 8.56 -0.0999994
      vertex 0 2.48 0
      vertex 0 5.64999 0
    endloop
  endfacet
  facet normal -1 0 0
    outer loop
      vertex 0 0 -0.0999994
      vertex 0 2.48 0
      vertex 0 8.56 -0.0999994
    endloop
  endfacet
  facet normal -1 -0 0
    outer loop
      vertex 0 2.48 0
      vertex 0 0 -0.0999994
      vertex 0 0.75 0
    endloop
  endfacet
  facet normal -1 0 0
    outer loop
      vertex 0 0 4.96
      vertex 0 0.75 0
      vertex 0 0 -0.0999994
    endloop
  endfacet
  facet normal -1 0 0
    outer loop
      vertex 0 0.75 0
      vertex 0 0 4.96
      vertex 0 0.75 4.96
    endloop
  endfacet
  facet normal -1 -0 0
    outer loop
      vertex 0 5.12999 4.96
      vertex 0 2.48 0
      vertex 0 2.48 4.96
    endloop
  endfacet
  facet normal 0 0 1
    outer loop
      vertex 2.34 8.56 0
      vertex 2.34 7 0
      vertex 2.34 0 0
    endloop
  endfacet
  facet normal -0 0 1
    outer loop
      vertex 2.34 4.82999 0
      vertex 2.34 0 0
      vertex 2.34 7 0
    endloop
  endfacet
  facet normal -0 0 1
    outer loop
      vertex 2.34 3.28999 0
      vertex 2.34 0 0
      vertex 2.34 4.82999 0
    endloop
  endfacet
  facet normal -0 0 1
    outer loop
      vertex 2.34 0.75 0
      vertex 2.34 0 0
      vertex 2.34 3.28999 0
    endloop
  endfacet
  facet normal 1 -0 0
    outer loop
      vertex 2.34 0 0
      vertex 2.34 8.56 -0.0999994
      vertex 2.34 8.56 0
    endloop
  endfacet
  facet normal 1 0 0
    outer loop
      vertex 2.34 8.56 -0.0999994
      vertex 2.34 0 0
      vertex 2.34 0 -0.0999994
    endloop
  endfacet
  facet normal 0 1 -0
    outer loop
      vertex 2.34 8.56 -0.0999994
      vertex 0 8.56 0
      vertex 2.34 8.56 0
    endloop
  endfacet
  facet normal 0 1 0
    outer loop
      vertex 0 8.56 0
      vertex 2.34 8.56 -0.0999994
      vertex 0 8.56 -0.0999994
    endloop
  endfacet
  facet normal 0 0 -1
    outer loop
      vertex 0 0 -0.0999994
      vertex 2.34 8.56 -0.0999994
      vertex 2.34 0 -0.0999994
    endloop
  endfacet
  facet normal -0 0 -1
    outer loop
      vertex 2.34 8.56 -0.0999994
      vertex 0 0 -0.0999994
      vertex 0 8.56 -0.0999994
    endloop
  endfacet
  facet normal 0 -1 0
    outer loop
      vertex 0 0 4.96
      vertex 2.34 0 0
      vertex 2.34 0 4.96
    endloop
  endfacet
  facet normal 0 -1 0
    outer loop
      vertex 0 0 -0.0999994
      vertex 2.34 0 0
      vertex 0 0 4.96
    endloop
  endfacet
  facet normal 0 -1 0
    outer loop
      vertex 2.34 0 -0.0999994
      vertex 2.34 0 0
      vertex 0 0 -0.0999994
    endloop
  endfacet
  facet normal 0 0 1
    outer loop
      vertex 1.67 8.56 4.96
      vertex 0.75 8.56 4.96
      vertex 1.10999 7 4.96
    endloop
  endfacet
  facet normal 0 0 1
    outer loop
      vertex 2.23 5.7 4.96
      vertex 1.23 5.64999 4.96
      vertex 2.23 5.37999 4.96
    endloop
  endfacet
  facet normal 0 0 1
    outer loop
      vertex 1.10999 7 4.96
      vertex 1.23 5.64999 4.96
      vertex 2.23 5.7 4.96
    endloop
  endfacet
  facet normal 0 0 1
    outer loop
      vertex 0.109985 6.96999 4.96
      vertex 1.10999 7 4.96
      vertex 0.75 8.56 4.96
    endloop
  endfacet
  facet normal 0 0 1
    outer loop
      vertex 1.10999 7 4.96
      vertex 0.109985 6.96999 4.96
      vertex 1.23 5.64999 4.96
    endloop
  endfacet
  facet normal 0 0 1
    outer loop
      vertex 1.23 5.64999 4.96
      vertex 0.809998 4.82999 4.96
      vertex 2.23 5.37999 4.96
    endloop
  endfacet
  facet normal 0 0 1
    outer loop
      vertex 0.809998 4.82999 4.96
      vertex 0 5.12999 4.96
      vertex 0.809998 3.28999 4.96
    endloop
  endfacet
  facet normal -0 0 1
    outer loop
      vertex 0 5.12999 4.96
      vertex 0.809998 4.82999 4.96
      vertex 1.23 5.64999 4.96
    endloop
  endfacet
  facet normal 0 0 1
    outer loop
      vertex 1.40999 2.48 4.96
      vertex 2.34 2.85999 4.96
      vertex 2.14999 3.28999 4.96
    endloop
  endfacet
  facet normal 0 0 1
    outer loop
      vertex 2.34 2.85999 4.96
      vertex 1.40999 2.48 4.96
      vertex 1.45 0.75 4.96
    endloop
  endfacet
  facet normal -0 0 1
    outer loop
      vertex 0.809998 3.28999 4.96
      vertex 1.40999 2.48 4.96
      vertex 2.14999 3.28999 4.96
    endloop
  endfacet
  facet normal 0 0 1
    outer loop
      vertex 0.809998 3.28999 4.96
      vertex 0 2.48 4.96
      vertex 1.40999 2.48 4.96
    endloop
  endfacet
  facet normal 0 0 1
    outer loop
      vertex 0 2.48 4.96
      vertex 0.809998 3.28999 4.96
      vertex 0 5.12999 4.96
    endloop
  endfacet
  facet normal -0 0 1
    outer loop
      vertex 1.45 0.75 4.96
      vertex 2.34 0 4.96
      vertex 2.34 0.75 4.96
    endloop
  endfacet
  facet normal 0 0 1
    outer loop
      vertex 0.649994 0.75 4.96
      vertex 1.45 0.75 4.96
      vertex 1.40999 2.48 4.96
    endloop
  endfacet
  facet normal 0 0 1
    outer loop
      vertex 0 0 4.96
      vertex 1.45 0.75 4.96
      vertex 0.649994 0.75 4.96
    endloop
  endfacet
  facet normal 0 0 1
    outer loop
      vertex 0 0 4.96
      vertex 0.649994 0.75 4.96
      vertex 0 0.75 4.96
    endloop
  endfacet
  facet normal 0 0 1
    outer loop
      vertex 1.45 0.75 4.96
      vertex 0 0 4.96
      vertex 2.34 0 4.96
    endloop
  endfacet
  facet normal 0 1 0
    outer loop
      vertex 2.34 0.75 4.96
      vertex 2.34 0.75 0
      vertex 1.45 0.75 4.96
    endloop
  endfacet
  facet normal 0 1 0
    outer loop
      vertex 2.14999 3.28999 4.96
      vertex 2.34 3.28999 0
      vertex 0.809998 3.28999 4.96
    endloop
  endfacet
  facet normal 0 1 0
    outer loop
      vertex 2.34 8.56 0
      vertex 0.75 8.56 4.96
      vertex 1.67 8.56 4.96
    endloop
  endfacet
  facet normal 0 1 0
    outer loop
      vertex 0.75 8.56 4.96
      vertex 2.34 8.56 0
      vertex 0 8.56 0
    endloop
  endfacet
  facet normal -0 -1 0
    outer loop
      vertex 1.40999 2.48 4.96
      vertex 0 2.48 4.96
      vertex 0 2.48 0
    endloop
  endfacet
  facet normal -0 1 0
    outer loop
      vertex 0 0.75 4.96
      vertex 0.649994 0.75 4.96
      vertex 0 0.75 0
    endloop
  endfacet
  facet normal 1 -0 0
    outer loop
      vertex 2.34 0 4.96
      vertex 2.34 0.75 0
      vertex 2.34 0.75 4.96
    endloop
  endfacet
  facet normal 1 0 0
    outer loop
      vertex 2.34 0.75 0
      vertex 2.34 0 4.96
      vertex 2.34 0 0
    endloop
  endfacet
  facet normal -0.991522 0 0.129936
    outer loop
      vertex 0 2.48 0
      vertex 0 0.75 0
      vertex 0.649994 0.75 4.96
    endloop
  endfacet
  facet normal -0.886032 0.389238 0.251874
    outer loop
      vertex 1.40999 2.48 4.96
      vertex 0 2.48 0
      vertex 0.649994 0.75 4.96
    endloop
  endfacet
  facet normal -0.387597 0.916804 0.0961174
    outer loop
      vertex 0 5.64999 0
      vertex 0 5.12999 4.96
      vertex 1.23 5.64999 4.96
    endloop
  endfacet
  facet normal -0.749228 -0.635718 0.185796
    outer loop
      vertex 0.109985 6.96999 4.96
      vertex 0 5.64999 0
      vertex 1.23 5.64999 4.96
    endloop
  endfacet
  facet normal -0.999754 0 0.022169
    outer loop
      vertex 0 8.56 0
      vertex 0 5.64999 0
      vertex 0.109985 6.96999 4.96
    endloop
  endfacet
  facet normal -0.918674 0.369786 0.138912
    outer loop
      vertex 0.75 8.56 4.96
      vertex 0 8.56 0
      vertex 0.109985 6.96999 4.96
    endloop
  endfacet
  facet normal 0.991 0 0.133865
    outer loop
      vertex 2.34 8.56 0
      vertex 1.67 8.56 4.96
      vertex 2.34 7 0
    endloop
  endfacet
  facet normal 0.916558 -0.329029 0.227294
    outer loop
      vertex 1.67 8.56 4.96
      vertex 1.10999 7 4.96
      vertex 2.34 7 0
    endloop
  endfacet
  facet normal 0.74458 0.641488 0.184645
    outer loop
      vertex 2.34 7 0
      vertex 1.10999 7 4.96
      vertex 2.23 5.7 4.96
    endloop
  endfacet
  facet normal 0.999754 0 0.0221721
    outer loop
      vertex 2.34 4.82999 0
      vertex 2.23 5.7 4.96
      vertex 2.23 5.37999 4.96
    endloop
  endfacet
  facet normal 0.999754 0 0.0221721
    outer loop
      vertex 2.23 5.7 4.96
      vertex 2.34 4.82999 0
      vertex 2.34 7 0
    endloop
  endfacet
  facet normal 0.35896 -0.926762 0.110727
    outer loop
      vertex 2.23 5.37999 4.96
      vertex 0.809998 4.82999 4.96
      vertex 2.34 4.82999 0
    endloop
  endfacet
  facet normal 0.955571 -0 0.294763
    outer loop
      vertex 0.809998 3.28999 4.96
      vertex 2.34 4.82999 0
      vertex 0.809998 4.82999 4.96
    endloop
  endfacet
  facet normal 0.955571 0 0.294763
    outer loop
      vertex 2.34 4.82999 0
      vertex 0.809998 3.28999 4.96
      vertex 2.34 3.28999 0
    endloop
  endfacet
  facet normal 1 0 0
    outer loop
      vertex 2.34 2.85999 4.96
      vertex 2.34 0.75 0
      vertex 2.34 3.28999 0
    endloop
  endfacet
  facet normal 0.914126 0.403914 0.0350174
    outer loop
      vertex 2.34 3.28999 0
      vertex 2.14999 3.28999 4.96
      vertex 2.34 2.85999 4.96
    endloop
  endfacet
  facet normal 0.909048 -0.38344 0.163115
    outer loop
      vertex 2.34 2.85999 4.96
      vertex 1.45 0.75 4.96
      vertex 2.34 0.75 0
    endloop
  endfacet
endsolid OpenSCAD_Model
